<svg width="71" height="48" viewBox="0 0 71 48" fill="none" xmlns="http://www.w3.org/2000/svg">
<path d="M9.54639 13.6782H11.4023V15.6777H9.54639V19H7.05469V15.6777H0.60498L0.533203 14.1602L6.97266 4.07031H9.54639V13.6782ZM3.14795 13.6782H7.05469V7.44385L6.87012 7.77197L3.14795 13.6782ZM22.7842 12.7144C22.7842 14.8608 22.3809 16.481 21.5742 17.5747C20.7744 18.6616 19.5542 19.2051 17.9136 19.2051C16.3003 19.2051 15.0835 18.6753 14.2632 17.6157C13.4497 16.5493 13.0327 14.9736 13.0122 12.8887V10.3047C13.0122 8.1582 13.4121 6.54834 14.2119 5.4751C15.0186 4.40186 16.2456 3.86523 17.8931 3.86523C19.5269 3.86523 20.7437 4.38818 21.5435 5.43408C22.3501 6.47998 22.7637 8.04541 22.7842 10.1304V12.7144ZM20.2925 9.92529C20.2925 8.52393 20.1011 7.49854 19.7183 6.84912C19.3354 6.19287 18.7271 5.86475 17.8931 5.86475C17.0796 5.86475 16.4814 6.17578 16.0986 6.79785C15.7158 7.41309 15.5142 8.37695 15.4937 9.68945V13.0732C15.4937 14.4678 15.6885 15.5068 16.0781 16.1904C16.4678 16.874 17.0796 17.2158 17.9136 17.2158C18.7134 17.2158 19.3047 16.9014 19.6875 16.2725C20.0703 15.6367 20.272 14.6455 20.2925 13.2988V9.92529ZM30.9053 10.7866H34.8018V13.063H30.9053V17.5029H28.4854V13.063H24.5684V10.7866H28.4854V6.63379H30.9053V10.7866Z" fill="white"/>
<path d="M2.54688 37.1719V47.25H1.09375V35.5469H2.42188L2.54688 37.1719ZM8.24219 39.7031V39.8672C8.24219 40.4818 8.16927 41.0521 8.02344 41.5781C7.8776 42.099 7.66406 42.5521 7.38281 42.9375C7.10677 43.3229 6.76562 43.6224 6.35938 43.8359C5.95312 44.0495 5.48698 44.1562 4.96094 44.1562C4.42448 44.1562 3.95052 44.0677 3.53906 43.8906C3.1276 43.7135 2.77865 43.4557 2.49219 43.1172C2.20573 42.7786 1.97656 42.3724 1.80469 41.8984C1.63802 41.4245 1.52344 40.8906 1.46094 40.2969V39.4219C1.52344 38.7969 1.64062 38.237 1.8125 37.7422C1.98438 37.2474 2.21094 36.8255 2.49219 36.4766C2.77865 36.1224 3.125 35.8542 3.53125 35.6719C3.9375 35.4844 4.40625 35.3906 4.9375 35.3906C5.46875 35.3906 5.9401 35.4948 6.35156 35.7031C6.76302 35.9062 7.10938 36.1979 7.39062 36.5781C7.67188 36.9583 7.88281 37.4141 8.02344 37.9453C8.16927 38.4714 8.24219 39.0573 8.24219 39.7031ZM6.78906 39.8672V39.7031C6.78906 39.2812 6.74479 38.8854 6.65625 38.5156C6.56771 38.1406 6.42969 37.8125 6.24219 37.5312C6.0599 37.2448 5.82552 37.0208 5.53906 36.8594C5.2526 36.6927 4.91146 36.6094 4.51562 36.6094C4.15104 36.6094 3.83333 36.6719 3.5625 36.7969C3.29688 36.9219 3.07031 37.0911 2.88281 37.3047C2.69531 37.513 2.54167 37.7526 2.42188 38.0234C2.30729 38.2891 2.22135 38.5651 2.16406 38.8516V40.875C2.26823 41.2396 2.41406 41.5833 2.60156 41.9062C2.78906 42.224 3.03906 42.4818 3.35156 42.6797C3.66406 42.8724 4.05729 42.9688 4.53125 42.9688C4.92188 42.9688 5.25781 42.888 5.53906 42.7266C5.82552 42.5599 6.0599 42.3333 6.24219 42.0469C6.42969 41.7604 6.56771 41.4323 6.65625 41.0625C6.74479 40.6875 6.78906 40.2891 6.78906 39.8672ZM11.5312 36.875V44H10.0859V35.5469H11.4922L11.5312 36.875ZM14.1719 35.5L14.1641 36.8438C14.0443 36.8177 13.9297 36.8021 13.8203 36.7969C13.7161 36.7865 13.5964 36.7812 13.4609 36.7812C13.1276 36.7812 12.8333 36.8333 12.5781 36.9375C12.3229 37.0417 12.1068 37.1875 11.9297 37.375C11.7526 37.5625 11.612 37.7865 11.5078 38.0469C11.4089 38.3021 11.3438 38.5833 11.3125 38.8906L10.9062 39.125C10.9062 38.6146 10.9557 38.1354 11.0547 37.6875C11.1589 37.2396 11.3177 36.8438 11.5312 36.5C11.7448 36.151 12.0156 35.8802 12.3438 35.6875C12.6771 35.4896 13.0729 35.3906 13.5312 35.3906C13.6354 35.3906 13.7552 35.4036 13.8906 35.4297C14.026 35.4505 14.1198 35.474 14.1719 35.5ZM14.9688 39.8672V39.6875C14.9688 39.0781 15.0573 38.513 15.2344 37.9922C15.4115 37.4661 15.6667 37.0104 16 36.625C16.3333 36.2344 16.737 35.9323 17.2109 35.7188C17.6849 35.5 18.2161 35.3906 18.8047 35.3906C19.3984 35.3906 19.9323 35.5 20.4062 35.7188C20.8854 35.9323 21.2917 36.2344 21.625 36.625C21.9635 37.0104 22.2214 37.4661 22.3984 37.9922C22.5755 38.513 22.6641 39.0781 22.6641 39.6875V39.8672C22.6641 40.4766 22.5755 41.0417 22.3984 41.5625C22.2214 42.0833 21.9635 42.5391 21.625 42.9297C21.2917 43.3151 20.888 43.6172 20.4141 43.8359C19.9453 44.0495 19.4141 44.1562 18.8203 44.1562C18.2266 44.1562 17.6927 44.0495 17.2188 43.8359C16.7448 43.6172 16.3385 43.3151 16 42.9297C15.6667 42.5391 15.4115 42.0833 15.2344 41.5625C15.0573 41.0417 14.9688 40.4766 14.9688 39.8672ZM16.4141 39.6875V39.8672C16.4141 40.2891 16.4635 40.6875 16.5625 41.0625C16.6615 41.4323 16.8099 41.7604 17.0078 42.0469C17.2109 42.3333 17.4635 42.5599 17.7656 42.7266C18.0677 42.888 18.4193 42.9688 18.8203 42.9688C19.2161 42.9688 19.5625 42.888 19.8594 42.7266C20.1615 42.5599 20.4115 42.3333 20.6094 42.0469C20.8073 41.7604 20.9557 41.4323 21.0547 41.0625C21.1589 40.6875 21.2109 40.2891 21.2109 39.8672V39.6875C21.2109 39.2708 21.1589 38.8776 21.0547 38.5078C20.9557 38.1328 20.8047 37.8021 20.6016 37.5156C20.4036 37.224 20.1536 36.9948 19.8516 36.8281C19.5547 36.6615 19.2057 36.5781 18.8047 36.5781C18.4089 36.5781 18.0599 36.6615 17.7578 36.8281C17.4609 36.9948 17.2109 37.224 17.0078 37.5156C16.8099 37.8021 16.6615 38.1328 16.5625 38.5078C16.4635 38.8776 16.4141 39.2708 16.4141 39.6875ZM24.5156 35.5469H25.9688V45.0078C25.9688 45.5234 25.8854 45.9609 25.7188 46.3203C25.5573 46.6797 25.3125 46.9505 24.9844 47.1328C24.6615 47.3203 24.2526 47.4141 23.7578 47.4141C23.6276 47.4141 23.4766 47.401 23.3047 47.375C23.1276 47.349 22.9792 47.3177 22.8594 47.2812L22.8672 46.1172C22.9661 46.138 23.0781 46.1536 23.2031 46.1641C23.3281 46.1797 23.4375 46.1875 23.5312 46.1875C23.7448 46.1875 23.9245 46.1484 24.0703 46.0703C24.2161 45.9922 24.3255 45.8672 24.3984 45.6953C24.4766 45.5234 24.5156 45.2943 24.5156 45.0078V35.5469ZM24.3672 33.3047C24.3672 33.0703 24.4401 32.8724 24.5859 32.7109C24.7318 32.5495 24.9427 32.4688 25.2188 32.4688C25.5 32.4688 25.7135 32.5495 25.8594 32.7109C26.0052 32.8724 26.0781 33.0703 26.0781 33.3047C26.0781 33.5286 26.0052 33.7214 25.8594 33.8828C25.7135 34.0391 25.5 34.1172 25.2188 34.1172C24.9427 34.1172 24.7318 34.0391 24.5859 33.8828C24.4401 33.7214 24.3672 33.5286 24.3672 33.3047ZM31.8125 44.1562C31.224 44.1562 30.6901 44.0573 30.2109 43.8594C29.737 43.6562 29.3281 43.3724 28.9844 43.0078C28.6458 42.6432 28.3854 42.2109 28.2031 41.7109C28.0208 41.2109 27.9297 40.6641 27.9297 40.0703V39.7422C27.9297 39.0547 28.0312 38.4427 28.2344 37.9062C28.4375 37.3646 28.7135 36.9062 29.0625 36.5312C29.4115 36.1562 29.8073 35.8724 30.25 35.6797C30.6927 35.487 31.151 35.3906 31.625 35.3906C32.2292 35.3906 32.75 35.4948 33.1875 35.7031C33.6302 35.9115 33.9922 36.2031 34.2734 36.5781C34.5547 36.9479 34.763 37.3854 34.8984 37.8906C35.0339 38.3906 35.1016 38.9375 35.1016 39.5312V40.1797H28.7891V39H33.6562V38.8906C33.6354 38.5156 33.5573 38.151 33.4219 37.7969C33.2917 37.4427 33.0833 37.151 32.7969 36.9219C32.5104 36.6927 32.1198 36.5781 31.625 36.5781C31.2969 36.5781 30.9948 36.6484 30.7188 36.7891C30.4427 36.9245 30.2057 37.1276 30.0078 37.3984C29.8099 37.6693 29.6562 38 29.5469 38.3906C29.4375 38.7812 29.3828 39.2318 29.3828 39.7422V40.0703C29.3828 40.4714 29.4375 40.849 29.5469 41.2031C29.6615 41.5521 29.8255 41.8594 30.0391 42.125C30.2578 42.3906 30.5208 42.599 30.8281 42.75C31.1406 42.901 31.4948 42.9766 31.8906 42.9766C32.401 42.9766 32.8333 42.8724 33.1875 42.6641C33.5417 42.4557 33.8516 42.1771 34.1172 41.8281L34.9922 42.5234C34.8099 42.7995 34.5781 43.0625 34.2969 43.3125C34.0156 43.5625 33.6693 43.7656 33.2578 43.9219C32.8516 44.0781 32.3698 44.1562 31.8125 44.1562ZM40.1719 42.9688C40.5156 42.9688 40.8333 42.8984 41.125 42.7578C41.4167 42.6172 41.6562 42.4245 41.8438 42.1797C42.0312 41.9297 42.138 41.6458 42.1641 41.3281H43.5391C43.513 41.8281 43.3438 42.2943 43.0312 42.7266C42.724 43.1536 42.3203 43.5 41.8203 43.7656C41.3203 44.026 40.7708 44.1562 40.1719 44.1562C39.5365 44.1562 38.9818 44.0443 38.5078 43.8203C38.0391 43.5964 37.6484 43.2891 37.3359 42.8984C37.0286 42.5078 36.7969 42.0599 36.6406 41.5547C36.4896 41.0443 36.4141 40.5052 36.4141 39.9375V39.6094C36.4141 39.0417 36.4896 38.5052 36.6406 38C36.7969 37.4896 37.0286 37.0391 37.3359 36.6484C37.6484 36.2578 38.0391 35.9505 38.5078 35.7266C38.9818 35.5026 39.5365 35.3906 40.1719 35.3906C40.8333 35.3906 41.4115 35.526 41.9062 35.7969C42.401 36.0625 42.7891 36.4271 43.0703 36.8906C43.3568 37.349 43.513 37.8698 43.5391 38.4531H42.1641C42.138 38.1042 42.0391 37.7891 41.8672 37.5078C41.7005 37.2266 41.4714 37.0026 41.1797 36.8359C40.8932 36.6641 40.5573 36.5781 40.1719 36.5781C39.7292 36.5781 39.3568 36.6667 39.0547 36.8438C38.7578 37.0156 38.5208 37.25 38.3438 37.5469C38.1719 37.8385 38.0469 38.1641 37.9688 38.5234C37.8958 38.8776 37.8594 39.2396 37.8594 39.6094V39.9375C37.8594 40.3073 37.8958 40.6719 37.9688 41.0312C38.0417 41.3906 38.1641 41.7161 38.3359 42.0078C38.513 42.2995 38.75 42.5339 39.0469 42.7109C39.349 42.8828 39.724 42.9688 40.1719 42.9688ZM48.7031 35.5469V36.6562H44.1328V35.5469H48.7031ZM45.6797 33.4922H47.125V41.9062C47.125 42.1927 47.1693 42.4089 47.2578 42.5547C47.3464 42.7005 47.4609 42.7969 47.6016 42.8438C47.7422 42.8906 47.8932 42.9141 48.0547 42.9141C48.1745 42.9141 48.2995 42.9036 48.4297 42.8828C48.5651 42.8568 48.6667 42.8359 48.7344 42.8203L48.7422 44C48.6276 44.0365 48.4766 44.0703 48.2891 44.1016C48.1068 44.138 47.8854 44.1562 47.625 44.1562C47.2708 44.1562 46.9453 44.0859 46.6484 43.9453C46.3516 43.8047 46.1146 43.5703 45.9375 43.2422C45.7656 42.9089 45.6797 42.4609 45.6797 41.8984V33.4922ZM55.3203 41.7578C55.3203 41.5495 55.2734 41.3568 55.1797 41.1797C55.0911 40.9974 54.9062 40.8333 54.625 40.6875C54.349 40.5365 53.9323 40.4062 53.375 40.2969C52.9062 40.1979 52.4818 40.0807 52.1016 39.9453C51.7266 39.8099 51.4062 39.6458 51.1406 39.4531C50.8802 39.2604 50.6797 39.0339 50.5391 38.7734C50.3984 38.513 50.3281 38.2083 50.3281 37.8594C50.3281 37.526 50.401 37.2109 50.5469 36.9141C50.6979 36.6172 50.9089 36.3542 51.1797 36.125C51.4557 35.8958 51.7865 35.7161 52.1719 35.5859C52.5573 35.4557 52.987 35.3906 53.4609 35.3906C54.138 35.3906 54.7161 35.5104 55.1953 35.75C55.6745 35.9896 56.0417 36.3099 56.2969 36.7109C56.5521 37.1068 56.6797 37.5469 56.6797 38.0312H55.2344C55.2344 37.7969 55.1641 37.5703 55.0234 37.3516C54.888 37.1276 54.6875 36.9427 54.4219 36.7969C54.1615 36.651 53.8411 36.5781 53.4609 36.5781C53.0599 36.5781 52.7344 36.6406 52.4844 36.7656C52.2396 36.8854 52.0599 37.0391 51.9453 37.2266C51.8359 37.4141 51.7812 37.612 51.7812 37.8203C51.7812 37.9766 51.8073 38.1172 51.8594 38.2422C51.9167 38.362 52.0156 38.474 52.1562 38.5781C52.2969 38.6771 52.4948 38.7708 52.75 38.8594C53.0052 38.9479 53.3307 39.0365 53.7266 39.125C54.4193 39.2812 54.9896 39.4688 55.4375 39.6875C55.8854 39.9062 56.2188 40.1745 56.4375 40.4922C56.6562 40.8099 56.7656 41.1953 56.7656 41.6484C56.7656 42.0182 56.6875 42.3568 56.5312 42.6641C56.3802 42.9714 56.1589 43.237 55.8672 43.4609C55.5807 43.6797 55.237 43.8516 54.8359 43.9766C54.4401 44.0964 53.9948 44.1562 53.5 44.1562C52.7552 44.1562 52.125 44.0234 51.6094 43.7578C51.0938 43.4922 50.7031 43.1484 50.4375 42.7266C50.1719 42.3047 50.0391 41.8594 50.0391 41.3906H51.4922C51.513 41.7865 51.6276 42.1016 51.8359 42.3359C52.0443 42.5651 52.2995 42.7292 52.6016 42.8281C52.9036 42.9219 53.2031 42.9688 53.5 42.9688C53.8958 42.9688 54.2266 42.9167 54.4922 42.8125C54.763 42.7083 54.9688 42.5651 55.1094 42.3828C55.25 42.2005 55.3203 41.9922 55.3203 41.7578Z" fill="white"/>
</svg>
